<?xml version="1.0" standalone="no"?>
<!DOCTYPE svg PUBLIC "-//W3C//DTD SVG 20010904//EN"
 "http://www.w3.org/TR/2001/REC-SVG-20010904/DTD/svg10.dtd">
<svg version="1.0" xmlns="http://www.w3.org/2000/svg"
 width="420.000000pt" height="420.000000pt" viewBox="0 0 420.000000 420.000000"
 preserveAspectRatio="xMidYMid meet">
<metadata>
Created by potrace 1.11, written by Peter Selinger 2001-2013
</metadata>
<g transform="translate(0.000000,420.000000) scale(0.100000,-0.100000)"
fill="#000000" stroke="none">
<path d="M2005 3961 c-4 -11 -8 -12 -17 -3 -15 15 -32 16 -23 2 9 -14 -8 -12
-24 3 -8 6 -11 8 -9 2 3 -5 0 -15 -7 -22 -10 -9 -15 -9 -17 -1 -3 8 -11 7 -26
-4 -12 -8 -19 -19 -14 -24 4 -4 -2 -2 -12 6 -13 10 -17 10 -12 3 5 -9 0 -13
-14 -13 -13 0 -24 -8 -27 -20 -3 -11 -9 -17 -14 -14 -5 3 -6 10 -3 16 4 7 2 8
-4 4 -7 -4 -12 -14 -12 -22 0 -8 -5 -14 -11 -14 -5 0 -7 5 -3 12 4 7 3 8 -5 4
-6 -4 -9 -12 -6 -17 4 -5 -5 -14 -19 -20 -16 -8 -22 -17 -19 -27 4 -10 2 -13
-5 -8 -10 6 -25 -8 -28 -26 -1 -5 -2 -11 -3 -14 0 -4 -9 0 -18 7 -10 8 -14 9
-10 2 4 -6 3 -14 -3 -18 -5 -3 -10 -15 -10 -27 0 -13 -5 -18 -14 -15 -10 4
-14 0 -11 -14 2 -10 -2 -19 -8 -19 -7 0 -6 -4 3 -10 13 -9 13 -10 0 -11 -8 -1
-17 -1 -20 -1 -3 0 -6 -11 -7 -26 -1 -48 -3 -52 -19 -52 -14 0 -14 -3 -4 -15
10 -12 10 -15 0 -15 -7 0 -10 -7 -7 -15 4 -8 2 -17 -3 -20 -5 -3 -5 -18 0 -35
5 -16 5 -32 0 -35 -4 -3 -7 -13 -6 -23 2 -9 -2 -20 -8 -24 -7 -5 -5 -8 6 -8
11 0 15 -5 12 -15 -4 -8 -11 -12 -18 -9 -6 3 -3 -1 7 -9 12 -10 15 -17 7 -22
-8 -5 -8 -10 0 -20 8 -10 7 -14 -2 -18 -9 -4 -10 -6 -1 -6 7 -1 10 -7 7 -15
-3 -8 0 -17 7 -22 8 -5 10 -3 4 6 -5 9 -4 11 4 6 6 -4 9 -11 6 -16 -3 -4 -2
-10 2 -13 5 -2 2 -2 -4 -1 -19 5 -16 -13 3 -20 10 -4 13 -13 9 -26 -4 -11 -2
-20 4 -20 15 0 14 -27 -1 -33 -8 -3 -7 -6 4 -6 9 -1 20 -6 24 -13 5 -8 1 -9
-12 -5 -18 7 -18 7 0 -8 12 -9 15 -15 7 -15 -10 0 -11 -3 -2 -13 6 -8 8 -17 4
-21 -11 -10 -12 -37 -2 -30 5 3 9 1 9 -5 0 -5 -5 -11 -11 -13 -7 -2 -13 -21
-14 -41 -2 -21 -8 -43 -14 -50 -7 -10 -7 -17 0 -24 8 -8 5 -13 -9 -17 -14 -5
-19 -13 -15 -29 4 -18 3 -19 -6 -7 -9 13 -11 13 -11 -2 0 -10 -4 -18 -9 -18
-5 0 -13 -9 -16 -21 -5 -16 -9 -18 -21 -8 -9 7 -14 8 -13 3 5 -28 -2 -43 -18
-37 -10 3 -15 3 -11 -1 8 -10 -14 -36 -24 -29 -5 2 -8 -1 -8 -7 0 -7 -7 -9
-16 -6 -12 5 -15 2 -10 -10 4 -12 2 -15 -9 -10 -8 3 -15 1 -15 -4 0 -6 -5 -10
-11 -10 -5 0 -7 6 -4 13 3 6 -2 2 -11 -10 -13 -19 -20 -21 -36 -12 -15 8 -19
8 -14 0 5 -7 -2 -11 -16 -10 -45 0 -103 -12 -110 -24 -6 -9 -8 -8 -9 3 0 9 -4
7 -11 -7 -13 -27 -33 -31 -24 -5 4 11 -1 8 -12 -7 -13 -15 -24 -21 -32 -16 -9
5 -11 4 -6 -3 4 -7 1 -12 -8 -12 -9 0 -16 -4 -16 -10 0 -5 -5 -10 -11 -10 -5
0 -7 6 -3 13 3 6 -10 -5 -29 -25 -20 -21 -41 -38 -48 -38 -6 0 -9 -8 -6 -20 3
-11 1 -18 -3 -15 -14 8 -72 -56 -65 -72 4 -11 1 -13 -11 -9 -13 5 -15 2 -11
-14 3 -11 1 -20 -4 -20 -5 0 -8 -4 -7 -9 2 -5 -6 -17 -17 -25 -14 -11 -17 -18
-8 -24 8 -5 9 -13 3 -22 -6 -8 -10 -10 -10 -5 0 6 -4 3 -10 -5 -6 -9 -5 -20 3
-29 10 -12 9 -13 -2 -6 -11 6 -13 3 -9 -13 4 -13 1 -22 -5 -22 -8 0 -7 -4 2
-9 11 -7 11 -9 0 -13 -12 -4 -11 -8 1 -23 8 -10 10 -16 3 -12 -6 4 -14 3 -18
-3 -3 -5 -1 -10 5 -10 6 0 8 -5 3 -12 -9 -16 -11 -88 -2 -88 3 0 5 -10 5 -22
-1 -13 2 -31 6 -40 6 -12 5 -18 -4 -19 -7 0 -3 -4 10 -10 13 -5 20 -13 17 -19
-3 -5 -3 -16 2 -22 8 -14 9 -19 11 -57 2 -18 5 -21 15 -12 11 8 13 6 12 -12
-1 -13 7 -27 19 -35 20 -13 20 -13 1 -7 -15 4 -12 -1 10 -19 17 -14 33 -25 37
-26 4 0 5 -7 2 -15 -4 -10 0 -15 11 -15 9 0 13 -4 10 -10 -5 -9 6 -14 26 -12
3 0 11 -9 19 -21 11 -19 11 -21 -1 -12 -8 6 -6 2 4 -8 11 -9 26 -17 34 -17 8
0 11 -5 7 -11 -4 -8 1 -9 17 -4 13 4 21 4 17 0 -11 -12 11 -35 28 -28 8 3 14
1 14 -5 0 -6 11 -9 25 -7 14 1 28 -2 31 -7 3 -5 12 -7 20 -4 8 3 11 0 7 -9 -4
-11 2 -14 26 -11 17 2 31 0 31 -4 0 -3 10 -6 23 -5 12 1 31 -5 42 -14 12 -9
15 -10 8 -1 -16 18 -17 38 -2 23 7 -7 21 -8 40 -3 18 5 27 5 24 -1 -4 -5 -2
-9 4 -9 5 0 13 5 17 12 5 8 11 6 19 -6 11 -15 13 -15 19 -1 4 11 13 14 32 9
18 -5 25 -3 20 4 -3 6 -1 14 5 18 7 4 9 3 6 -3 -4 -6 0 -13 8 -17 8 -3 14 -2
14 2 -4 27 2 32 22 21 12 -6 19 -7 15 -1 -3 5 1 13 10 16 8 3 12 2 9 -4 -3 -6
1 -7 9 -4 9 3 14 10 11 14 -7 11 31 23 44 15 6 -3 8 3 6 14 -2 14 1 18 11 14
8 -3 14 0 14 7 0 10 4 9 16 0 8 -8 14 -9 13 -4 -4 22 2 44 12 44 5 0 7 -5 3
-12 -5 -7 -3 -8 5 -4 7 5 10 14 7 22 -3 8 -2 13 2 13 23 -4 34 3 28 17 -3 8
-2 12 4 9 6 -3 10 -1 10 4 0 6 5 10 11 9 6 -2 13 8 15 22 2 14 12 32 22 40 10
9 17 21 14 28 -2 8 2 10 13 6 9 -4 15 -3 14 2 -5 29 2 55 14 48 7 -5 6 0 -3
11 -13 17 -13 18 1 13 9 -4 16 -1 16 8 0 7 -5 11 -11 8 -6 -3 -2 2 8 10 14 11
15 16 6 16 -9 0 -8 4 5 13 14 11 15 16 5 22 -9 6 -11 4 -5 -5 5 -9 4 -11 -4
-6 -9 6 -9 11 -1 21 7 8 9 19 5 25 -3 5 -1 10 6 10 8 0 9 4 0 13 -8 10 -7 19
4 33 18 24 19 39 2 28 -7 -5 -4 0 8 10 15 15 16 18 3 13 -22 -8 -29 15 -9 31
9 8 11 11 4 8 -6 -4 -14 -2 -18 4 -3 5 0 10 7 10 10 0 11 2 0 8 -7 5 -10 16
-6 25 3 9 2 17 -4 17 -5 0 -12 7 -16 15 -3 8 -2 14 2 14 22 -4 23 4 2 26 -14
15 -21 31 -17 44 3 11 2 19 -2 18 -5 -2 -12 9 -10 16 0 1 2 17 4 35 3 25 1 31
-9 23 -9 -7 -12 -1 -11 24 0 18 3 31 6 29 11 -6 20 28 11 40 -12 16 -9 35 8
46 13 8 13 10 1 10 -11 0 -10 4 5 16 10 8 12 12 4 8 -12 -6 -13 -5 -3 7 10 12
10 18 0 28 -10 11 -7 11 13 1 22 -12 24 -12 12 3 -11 13 -10 17 7 26 12 7 18
19 16 31 -2 11 0 18 6 15 5 -4 9 1 9 9 0 15 12 21 33 17 5 -1 6 3 3 7 -3 5 4
18 17 28 21 19 21 19 7 -1 -14 -18 -13 -19 1 -8 9 7 19 10 23 6 4 -4 4 1 0 12
-4 11 -4 17 1 13 12 -11 47 11 38 25 -5 9 -2 8 9 -1 12 -10 18 -9 28 3 15 18
37 20 43 3 5 -12 11 17 8 35 -1 5 3 5 9 2 6 -4 9 -14 6 -24 -5 -13 -3 -12 8 2
9 12 30 20 57 21 24 1 45 8 47 14 6 19 22 14 16 -5 -2 -10 1 -8 7 4 9 17 19
22 36 19 15 -3 21 -1 17 6 -5 8 -1 9 10 5 10 -4 15 -3 11 3 -11 18 5 31 25 20
16 -9 21 -6 26 14 3 14 11 24 18 23 6 -1 10 4 8 12 -3 12 -1 12 14 0 10 -8 15
-9 12 -4 -3 6 4 19 15 30 11 11 17 14 13 8 -4 -7 -4 -13 -1 -13 3 0 11 13 16
30 6 16 15 27 20 24 5 -3 9 1 9 8 0 7 9 19 21 26 17 11 18 16 8 28 -10 12 -9
13 5 8 11 -4 16 -2 14 7 -2 8 2 13 8 12 8 -1 10 6 6 19 -3 14 -1 19 6 14 8 -5
10 -2 6 8 -4 10 -1 16 7 16 11 0 11 3 -1 10 -13 9 -13 10 0 11 8 1 20 1 25 0
6 -1 2 5 -8 13 -18 14 -7 33 13 21 6 -3 7 1 4 9 -3 9 -11 13 -18 9 -6 -4 -5 1
3 10 7 9 10 17 6 17 -4 0 -3 6 3 13 7 8 7 18 2 27 -7 11 -3 19 13 28 12 7 15
11 5 8 -13 -4 -16 2 -14 27 1 18 -2 38 -7 45 -6 7 -6 12 0 12 5 0 15 -6 23
-12 9 -8 8 -5 -1 7 -9 11 -14 26 -11 34 2 8 0 11 -5 8 -11 -7 -11 22 1 41 4 7
2 12 -4 12 -6 0 -8 11 -6 25 3 18 -1 28 -15 35 -10 6 -19 15 -19 21 0 6 4 7
10 4 6 -3 7 1 4 9 -3 9 -10 16 -16 16 -5 0 -6 5 -3 10 3 6 -1 10 -11 10 -14 0
-15 2 -3 18 7 9 10 14 5 10 -10 -8 -36 15 -36 32 0 6 -5 8 -11 4 -8 -4 -8 0 0
15 10 17 9 21 -4 21 -10 0 -13 -5 -9 -12 4 -7 3 -8 -5 -4 -9 6 -9 11 1 24 11
13 11 14 0 8 -14 -8 -45 11 -37 24 8 12 -23 32 -37 24 -7 -4 -10 -4 -6 1 10
11 -32 46 -46 38 -6 -4 -4 2 4 13 8 10 11 16 6 12 -9 -7 -68 11 -76 23 -3 5
-17 10 -30 11 -14 2 -34 11 -44 20 -14 12 -24 15 -37 8 -11 -7 -19 -6 -21 1
-2 6 -44 11 -106 12 -80 2 -103 -1 -107 -12z m270 -21 c3 -6 -1 -7 -9 -4 -18
7 -21 14 -7 14 6 0 13 -4 16 -10z m-415 -1440 c0 -5 -2 -10 -4 -10 -3 0 -8 5
-11 10 -3 6 -1 10 4 10 6 0 11 -4 11 -10z m-3 -117 c0 -9 -4 -10 -14 -2 -7 6
-13 12 -13 14 0 1 6 2 13 2 8 0 14 -6 14 -14z m33 -108 c11 -13 10 -14 -4 -9
-9 3 -16 10 -16 15 0 13 6 11 20 -6z"/>
<path d="M2515 3800 c3 -5 8 -10 11 -10 2 0 4 5 4 10 0 6 -5 10 -11 10 -5 0
-7 -4 -4 -10z"/>
<path d="M2806 2678 c3 -5 10 -6 15 -3 13 9 11 12 -6 12 -8 0 -12 -4 -9 -9z"/>
<path d="M2850 2678 c0 -15 -36 -18 -59 -4 -5 4 -13 1 -18 -6 -4 -7 -16 -14
-25 -14 -10 -1 -15 3 -12 8 4 6 -2 5 -14 -1 -11 -6 -28 -8 -38 -4 -14 5 -16 3
-11 -12 6 -15 5 -16 -8 -5 -12 10 -16 9 -21 -4 -3 -9 -10 -16 -16 -16 -5 0 -6
5 -2 12 4 6 -9 -1 -29 -16 -21 -16 -41 -25 -48 -20 -7 4 -9 3 -5 -4 8 -13 -28
-35 -39 -24 -5 4 -5 2 -2 -4 4 -7 0 -15 -9 -18 -8 -3 -13 -10 -10 -14 3 -5 -6
-15 -19 -22 -13 -7 -22 -17 -19 -21 2 -4 -5 -6 -17 -4 -18 4 -19 2 -8 -13 7
-9 10 -14 5 -10 -12 10 -39 -20 -30 -34 5 -7 2 -9 -9 -5 -8 3 -18 0 -21 -8 -3
-10 0 -12 12 -9 12 4 11 2 -3 -7 -34 -21 -45 -42 -32 -58 9 -12 9 -13 0 -7
-13 7 -17 -4 -14 -33 2 -7 -2 -10 -8 -6 -6 3 -11 3 -12 -2 0 -4 -2 -17 -5 -28
-2 -11 -6 -38 -9 -59 -3 -21 -8 -43 -11 -47 -3 -5 0 -9 7 -9 7 0 4 -7 -7 -16
-10 -8 -13 -13 -6 -9 6 3 12 1 12 -4 0 -6 -6 -11 -12 -11 -10 0 -10 -2 0 -9 7
-4 15 -20 16 -34 2 -15 -1 -24 -5 -21 -15 9 -10 -13 6 -26 10 -9 12 -16 5 -25
-6 -8 -5 -16 3 -25 9 -10 9 -11 0 -6 -7 4 -13 2 -13 -3 0 -6 5 -11 11 -11 5 0
9 -9 7 -19 -2 -10 6 -28 16 -40 11 -12 14 -21 7 -21 -17 0 10 -40 29 -41 10 0
8 -3 -5 -9 -17 -7 -17 -9 -2 -9 16 -1 22 -13 18 -35 -1 -5 5 -6 13 -3 10 4 14
0 11 -13 -2 -12 3 -21 16 -25 18 -6 24 -18 20 -39 -1 -5 5 -4 13 3 13 11 16 9
22 -12 4 -18 11 -24 22 -20 8 4 13 2 9 -3 -3 -5 8 -16 24 -23 21 -9 27 -17 20
-25 -7 -8 0 -11 22 -10 20 1 41 -6 54 -18 12 -12 29 -18 37 -15 9 4 15 3 15
-1 -3 -21 3 -24 16 -6 14 19 14 19 9 -1 -5 -18 -1 -20 35 -19 24 0 41 -4 41
-10 0 -6 5 -4 10 4 8 12 10 12 10 -5 0 -17 2 -18 10 -5 9 13 12 13 23 -1 6 -9
18 -14 26 -11 9 3 11 0 6 -8 -5 -9 -2 -10 14 -5 15 4 21 2 21 -9 0 -10 6 -13
17 -9 12 5 15 2 10 -9 -4 -12 -1 -14 15 -10 16 4 19 2 13 -8 -6 -10 -4 -12 9
-7 10 4 15 3 11 -3 -3 -6 1 -10 11 -10 14 0 15 -2 3 -17 -11 -13 -11 -15 -1
-9 14 9 52 -24 52 -44 0 -6 4 -9 9 -6 4 3 13 -6 20 -20 6 -15 7 -23 1 -19 -5
3 -10 2 -10 -3 0 -5 10 -12 22 -15 17 -5 19 -9 9 -21 -8 -10 -9 -16 -1 -21 5
-3 10 -22 10 -41 0 -25 4 -34 18 -35 14 0 14 -2 -3 -9 -11 -5 -14 -9 -6 -9 9
-1 10 -5 3 -13 -5 -7 -6 -22 -2 -33 8 -21 2 -48 -9 -41 -3 2 -6 -14 -5 -35 0
-31 -3 -39 -14 -34 -12 4 -12 3 -3 -9 9 -11 8 -15 -4 -19 -9 -4 -12 -13 -8
-23 5 -12 3 -15 -6 -9 -10 6 -11 3 -2 -13 8 -15 8 -22 -2 -25 -8 -4 -8 -6 2
-6 11 -1 10 -4 -4 -14 -12 -10 -15 -19 -9 -28 12 -20 14 -40 3 -33 -5 3 -9 -2
-9 -11 0 -9 4 -14 8 -11 4 2 8 -13 7 -34 0 -30 -3 -36 -13 -28 -9 8 -11 7 -6
-6 3 -9 11 -16 16 -16 6 0 4 -8 -3 -17 -10 -11 -10 -14 -1 -9 8 5 12 -2 12
-26 0 -18 9 -44 20 -58 13 -18 16 -28 8 -37 -7 -9 -7 -13 1 -13 7 0 10 -4 6
-9 -3 -5 -1 -12 5 -16 6 -4 8 -10 5 -15 -3 -5 -1 -11 5 -15 6 -4 8 -11 5 -16
-4 -5 2 -6 11 -2 13 5 16 3 11 -10 -4 -11 -1 -17 8 -17 8 0 15 -9 15 -20 0
-14 7 -20 23 -21 12 0 16 -3 10 -6 -10 -3 -9 -8 2 -19 8 -9 19 -13 25 -9 5 3
7 0 4 -8 -3 -9 3 -16 15 -20 12 -3 21 -13 21 -24 0 -15 2 -16 10 -3 8 13 10
13 10 -2 0 -9 5 -20 12 -24 7 -4 8 -3 4 4 -11 18 10 14 25 -5 8 -10 9 -14 2
-10 -6 4 -14 3 -17 -2 -3 -4 2 -8 12 -8 51 0 64 -4 59 -16 -4 -10 2 -13 19 -9
13 2 24 0 24 -6 0 -5 7 -13 16 -16 10 -4 13 -2 8 7 -4 6 -4 9 1 5 4 -4 13 -3
20 2 8 7 12 5 12 -5 0 -8 -4 -12 -9 -9 -4 3 -8 0 -8 -6 0 -6 8 -10 18 -8 9 1
23 -1 30 -5 6 -5 12 -4 12 1 0 6 14 7 34 2 18 -4 41 -3 50 2 11 6 16 5 16 -4
0 -9 3 -9 10 2 5 8 10 11 10 5 0 -5 16 -10 35 -10 19 0 35 4 35 8 0 5 4 6 9 3
5 -4 12 0 14 6 4 10 6 10 6 1 1 -7 6 -13 12 -13 5 0 7 4 4 10 -3 5 1 10 10 10
10 0 13 5 9 13 -6 9 -4 9 8 -1 11 -9 18 -10 23 -2 3 6 10 8 15 5 5 -3 15 2 23
10 12 11 17 12 20 2 4 -8 6 -6 6 4 1 9 8 16 16 17 8 1 22 3 30 4 8 1 12 5 9
10 -3 5 -10 5 -16 2 -7 -4 -8 -2 -4 5 4 6 11 9 16 6 5 -3 15 2 23 10 12 11 17
12 20 2 3 -7 6 -4 6 6 1 10 6 15 11 12 6 -3 10 -1 10 5 0 6 4 9 8 6 5 -3 9 1
9 9 0 8 -5 15 -10 15 -6 0 -7 3 -4 6 4 4 14 1 24 -7 13 -11 15 -11 9 -1 -8 13
26 56 37 46 2 -3 7 2 11 11 4 11 2 14 -7 10 -6 -4 -3 2 8 12 26 22 54 59 39
50 -6 -3 -11 0 -11 7 0 8 6 12 13 9 6 -2 15 1 20 8 4 8 3 10 -4 5 -8 -5 -10
-2 -6 8 3 9 10 14 14 11 5 -3 7 3 6 12 -2 10 2 21 8 25 8 5 7 8 -2 8 -7 0 -10
5 -7 10 4 6 11 7 17 4 5 -4 4 4 -3 17 -11 21 -10 22 2 12 13 -11 15 -6 14 32
0 25 3 45 8 45 4 0 5 6 0 13 -11 17 -10 41 2 49 6 5 5 8 -2 8 -9 0 -10 7 -3
25 5 13 5 27 1 29 -5 3 -7 20 -5 37 3 23 0 30 -10 26 -9 -4 -12 2 -10 19 1 13
-1 26 -6 29 -4 2 -6 18 -5 35 2 27 -4 34 -26 32 -4 -1 -5 8 -2 18 3 11 0 20
-6 20 -9 0 -9 6 0 22 12 22 11 22 -6 8 -17 -14 -18 -13 -12 2 4 13 2 15 -10
11 -11 -4 -14 -2 -9 5 8 14 -17 55 -27 45 -4 -3 -7 1 -7 11 0 9 -4 14 -10 11
-5 -3 -10 1 -10 9 0 9 -9 16 -20 16 -11 0 -20 5 -20 11 0 5 6 7 13 3 9 -6 9
-4 -1 8 -7 9 -21 15 -31 13 -12 -2 -18 2 -17 13 0 9 -5 16 -11 14 -7 -1 -13 2
-13 8 0 6 -3 9 -7 9 -22 -4 -33 3 -34 19 0 9 -3 12 -5 5 -7 -16 -34 -5 -34 13
0 17 -5 17 -30 4 -15 -8 -18 -7 -14 3 3 10 -3 13 -23 12 -15 -1 -37 4 -49 11
-11 7 -42 14 -67 16 -25 2 -56 12 -69 22 -13 9 -27 17 -33 17 -5 0 -16 10 -23
22 -12 20 -13 20 -8 2 6 -19 5 -19 -7 -3 -8 10 -17 14 -21 10 -4 -4 -6 0 -4 8
2 9 -4 14 -14 14 -9 -1 -19 5 -22 13 -4 9 -1 12 7 8 6 -4 4 0 -5 8 -10 8 -18
20 -18 28 0 11 -2 11 -11 -1 -8 -12 -10 -8 -6 17 3 27 1 30 -10 21 -8 -6 -13
-7 -12 -2 4 23 -2 35 -13 28 -9 -5 -9 -2 1 9 11 14 11 17 0 17 -11 0 -11 2 1
10 12 8 12 10 -5 10 -15 0 -16 3 -7 9 11 7 11 11 -2 24 -17 17 -21 37 -8 37 5
0 9 7 9 15 0 10 -4 12 -12 5 -9 -8 -11 -2 -9 22 2 17 9 35 15 39 8 4 7 8 -2
12 -12 5 -12 7 0 15 11 8 11 10 0 15 -10 4 -9 6 4 6 9 1 17 5 17 11 0 5 -8 6
-17 3 -16 -6 -16 -5 -4 10 7 9 18 14 25 10 6 -4 5 0 -2 9 -9 11 -10 18 -2 23
5 3 10 17 10 31 0 16 4 23 11 18 8 -5 10 1 7 20 -3 14 -2 26 2 26 4 0 5 12 2
26 -4 21 -2 25 9 19 11 -7 11 -5 -1 10 -9 11 -10 16 -2 11 6 -4 12 -2 12 3 0
6 -5 11 -10 11 -10 0 -7 41 5 60 3 5 1 10 -6 10 -8 0 -8 4 1 15 10 12 10 15 0
15 -8 0 -11 10 -8 30 3 17 1 30 -3 30 -5 0 -5 7 -2 17 5 12 3 14 -8 8 -12 -8
-12 -6 0 8 8 10 11 20 7 24 -3 3 -6 2 -6 -4 0 -5 -6 -10 -13 -10 -8 0 -14 6
-14 13 0 7 4 11 8 9 4 -3 6 6 5 19 0 13 -4 22 -8 19 -5 -2 -8 3 -8 12 0 9 -4
13 -10 10 -6 -4 -10 7 -10 24 0 17 -5 31 -11 31 -5 0 -7 -5 -3 -12 4 -7 3 -8
-4 -4 -6 4 -9 13 -5 21 3 9 -1 15 -11 15 -9 0 -16 5 -16 11 0 5 6 7 13 3 8 -5
8 -2 -2 9 -7 9 -20 17 -29 17 -8 0 -13 2 -10 6 7 7 -45 61 -54 56 -5 -2 -8 4
-8 12 0 8 -9 18 -20 21 -11 3 -20 10 -20 15 0 5 -10 10 -22 12 -13 2 -22 9
-21 15 2 7 -4 10 -12 7 -8 -4 -15 -2 -15 3 0 5 -9 10 -20 11 -11 1 -29 3 -41
4 -19 2 -19 3 -3 15 22 16 10 17 -18 2 -16 -9 -19 -8 -13 2 6 9 2 11 -13 7
-12 -4 -22 -2 -22 2 0 10 -20 8 -39 -4 -10 -6 -12 -5 -7 2 4 7 1 12 -8 12 -8
0 -17 -6 -20 -12 -3 -7 -3 -3 0 9 4 18 2 22 -10 17 -9 -3 -13 -11 -10 -18 3
-6 -2 -2 -10 8 -13 16 -16 17 -16 4z m-480 -302 c0 -2 -8 -10 -17 -17 -16 -13
-17 -12 -4 4 13 16 21 21 21 13z m1327 -1022 c-3 -3 -12 -4 -19 -1 -8 3 -5 6
6 6 11 1 17 -2 13 -5z"/>
<path d="M3240 2526 c0 -2 8 -10 18 -17 15 -13 16 -12 3 4 -13 16 -21 21 -21
13z"/>
<path d="M2262 2084 c10 -10 20 -16 22 -13 3 3 -5 11 -17 18 -21 13 -21 12 -5
-5z"/>
<path d="M1825 1789 c-4 -6 -5 -12 -2 -15 2 -3 7 2 10 11 7 17 1 20 -8 4z"/>
<path d="M890 1740 c0 -5 5 -10 11 -10 5 0 7 5 4 10 -3 6 -8 10 -11 10 -2 0
-4 -4 -4 -10z"/>
<path d="M2593 1585 c0 -8 4 -12 9 -9 5 3 6 10 3 15 -9 13 -12 11 -12 -6z"/>
<path d="M1150 1566 c0 -2 8 -10 18 -17 15 -13 16 -12 3 4 -13 16 -21 21 -21
13z"/>
<path d="M3580 1406 c0 -2 8 -10 18 -17 15 -13 16 -12 3 4 -13 16 -21 21 -21
13z"/>
<path d="M2020 1375 c-6 -8 -9 -20 -5 -27 4 -7 -1 -4 -9 6 -9 11 -16 14 -16 8
0 -7 -7 -12 -16 -12 -9 0 -12 -5 -8 -12 6 -10 5 -10 -7 -1 -15 12 -56 3 -104
-24 -11 -6 -24 -12 -30 -13 -25 -6 -47 -29 -39 -42 6 -10 3 -9 -10 1 -14 12
-17 12 -14 1 2 -8 -4 -14 -12 -15 -8 0 -14 -8 -14 -18 1 -9 -2 -15 -6 -12 -11
7 -42 -24 -35 -36 4 -5 -1 -6 -9 -3 -9 3 -16 2 -16 -3 0 -13 -67 -88 -79 -88
-6 0 -17 -9 -26 -20 -9 -11 -14 -14 -10 -7 3 6 1 12 -4 12 -6 0 -11 -6 -11
-14 0 -8 -9 -12 -26 -10 -21 2 -23 0 -13 -12 10 -12 9 -13 -4 -9 -8 4 -18 2
-21 -4 -5 -7 -15 -7 -33 0 -24 9 -25 8 -12 -8 9 -11 10 -14 2 -9 -8 4 -13 2
-13 -5 0 -7 -6 -5 -14 6 -13 18 -13 18 -24 -1 -8 -13 -11 -14 -12 -5 0 11 -4
9 -15 -5 -14 -19 -15 -19 -21 4 -7 25 -22 29 -30 7 -5 -12 -9 -11 -26 5 -14
13 -26 17 -37 11 -10 -6 -20 -4 -29 7 -10 13 -12 13 -7 2 4 -8 -1 -6 -10 5 -9
11 -19 20 -23 21 -21 3 -81 35 -93 51 -11 15 -9 15 11 -2 l25 -20 -19 23 c-11
12 -25 21 -32 18 -8 -3 -11 1 -7 10 3 7 0 14 -7 14 -20 0 -42 30 -36 47 6 14
3 14 -15 -3 l-22 -19 13 24 c7 15 8 21 1 17 -6 -4 -16 -4 -22 0 -8 5 -8 9 1
14 8 5 2 10 -19 15 -29 6 -36 15 -32 39 1 5 -5 4 -13 -4 -14 -10 -16 -10 -16
6 0 16 -2 17 -10 4 -7 -11 -10 -11 -10 -2 0 8 -5 10 -12 6 -8 -5 -7 0 2 11 9
11 10 16 3 11 -8 -4 -13 -2 -13 6 0 9 -3 10 -8 2 -7 -12 -39 -11 -50 2 -4 4 1
4 11 1 11 -4 16 -3 12 4 -4 5 -14 9 -23 7 -10 -2 -23 3 -30 12 -8 8 -11 9 -7
3 7 -15 -4 -17 -25 -3 -9 6 -17 5 -21 -2 -6 -9 -12 -8 -23 1 -9 7 -13 18 -9
24 3 6 1 7 -6 3 -6 -4 -9 -12 -6 -17 4 -5 1 -9 -4 -9 -6 0 -11 5 -11 11 0 8
-4 8 -14 0 -11 -9 -16 -9 -22 0 -5 8 -3 10 7 4 8 -5 11 -4 6 1 -12 12 -57 12
-57 0 0 -5 -3 -6 -7 -3 -3 4 -12 -1 -20 -11 -12 -16 -13 -16 -7 0 4 13 1 16
-18 14 -36 -4 -59 -17 -51 -30 5 -8 3 -8 -8 0 -17 14 -50 14 -42 1 4 -6 -1 -8
-11 -4 -13 5 -17 3 -13 -7 6 -16 -24 -17 -35 -1 -4 6 -8 2 -8 -9 0 -15 -3 -16
-15 -6 -13 11 -14 10 -9 -3 3 -10 -3 -20 -18 -28 -22 -12 -22 -11 -8 6 14 17
14 17 -7 4 -12 -7 -20 -15 -17 -18 2 -2 -13 -14 -33 -26 -21 -12 -37 -27 -35
-33 1 -7 -5 -12 -14 -12 -8 0 -12 -4 -9 -10 3 -5 2 -10 -4 -10 -5 0 -13 -9
-16 -21 -5 -16 -9 -18 -21 -8 -12 10 -13 9 -8 -5 3 -9 1 -16 -4 -16 -6 0 -9
-9 -7 -20 2 -12 -2 -20 -10 -20 -18 0 -28 -30 -14 -47 10 -11 8 -12 -16 -3
-25 9 -26 9 -15 -5 7 -8 8 -15 3 -15 -6 0 -9 -11 -8 -25 2 -14 0 -23 -5 -20
-4 3 -11 -3 -15 -13 -13 -29 -14 -42 -2 -35 8 4 7 1 -1 -9 -10 -13 -10 -17 0
-21 11 -4 10 -6 0 -6 -7 -1 -10 -5 -7 -11 3 -5 1 -10 -6 -10 -7 0 -8 -4 -2
-12 5 -7 8 -51 8 -98 -1 -60 3 -89 12 -99 8 -7 12 -20 9 -27 -3 -8 -2 -14 3
-14 4 0 7 -13 6 -30 -1 -16 2 -35 8 -42 6 -9 7 -8 3 5 -4 11 -2 16 5 11 6 -3
9 -15 6 -25 -3 -11 -1 -17 3 -14 9 6 26 -33 21 -49 -1 -5 5 -4 13 3 12 10 14
9 9 -8 -4 -15 -1 -21 11 -21 10 0 13 -5 9 -17 -4 -11 -3 -14 5 -9 11 7 17 -6
13 -28 -1 -5 5 -4 13 3 13 11 15 10 11 -9 -3 -17 0 -20 16 -15 11 4 19 3 18
-2 -3 -19 2 -31 17 -37 12 -5 14 -3 8 7 -5 7 1 1 13 -13 16 -17 23 -20 23 -10
1 10 5 7 13 -7 7 -12 16 -22 22 -22 5 0 12 -8 16 -18 6 -15 8 -14 8 7 1 19 3
22 10 10 6 -8 8 -17 5 -21 -2 -4 1 -11 7 -15 7 -4 9 -3 5 4 -10 16 41 8 61
-10 10 -9 33 -16 52 -16 18 0 35 -3 38 -6 3 -3 14 -1 24 5 14 7 19 6 19 -3 0
-9 3 -9 10 2 5 8 10 11 10 5 0 -11 72 -11 89 0 6 3 11 0 11 -7 0 -10 2 -10 9
0 4 8 12 14 17 15 5 1 8 5 7 9 -3 9 25 4 34 -7 4 -4 2 -5 -6 0 -10 5 -12 4 -7
-4 10 -16 29 -2 21 16 -4 12 -2 13 8 5 10 -9 17 -8 27 1 10 10 12 9 6 -3 -5
-9 -2 -9 7 2 8 10 18 14 22 10 5 -4 5 1 2 10 -4 12 -2 15 8 11 8 -3 12 -10 8
-16 -3 -6 -1 -7 6 -3 6 4 9 11 6 16 -3 4 2 11 11 14 10 4 13 2 9 -7 -4 -6 2
-2 12 9 10 12 28 25 41 29 12 3 20 9 18 13 -2 4 9 19 24 34 20 19 30 24 34 15
4 -6 4 -1 2 11 -3 13 -2 22 1 19 6 -7 49 36 46 45 -2 5 4 8 13 8 8 0 12 5 9
10 -3 6 3 10 14 10 13 0 21 7 21 18 0 14 2 15 10 2 8 -13 11 -11 16 8 4 12 11
22 16 22 5 0 6 -6 3 -12 -4 -7 -1 -6 7 3 7 9 19 14 26 12 6 -3 12 0 12 6 0 6
7 11 15 11 8 0 15 5 15 12 0 6 7 3 15 -8 11 -14 14 -15 9 -3 -3 10 0 20 7 25
8 4 10 3 5 -4 -4 -7 -3 -12 3 -12 5 0 13 5 17 11 4 8 9 7 15 -2 7 -11 9 -11 9
-1 0 9 5 10 16 4 9 -5 33 -6 55 -2 21 4 36 4 34 -1 -3 -4 -1 -10 4 -13 5 -4
13 -1 16 5 5 7 15 3 31 -12 12 -12 30 -19 38 -16 9 4 23 -5 36 -21 16 -20 20
-22 15 -7 -5 16 -4 18 7 7 7 -7 13 -18 13 -25 1 -7 7 -11 14 -9 9 2 11 -3 7
-14 -5 -14 -4 -15 8 -5 13 11 15 9 11 -8 -2 -12 0 -19 6 -16 5 4 16 -1 25 -9
8 -9 12 -16 7 -16 -4 0 3 -6 17 -13 14 -7 24 -21 24 -30 -1 -9 2 -15 6 -12 13
8 41 -25 33 -38 -5 -9 -3 -9 8 0 12 10 18 8 29 -10 8 -12 13 -26 12 -31 -2 -5
4 -4 12 4 11 8 16 9 16 1 0 -15 27 -14 34 2 3 6 3 1 0 -12 -4 -16 -3 -21 5
-17 6 4 11 3 11 -3 0 -5 9 -8 20 -6 11 2 20 -1 20 -6 0 -6 5 -7 10 -4 6 3 10
0 11 -7 0 -7 4 -4 9 7 l9 20 1 -20 c2 -11 2 -23 2 -26 -1 -3 6 -6 13 -6 10 0
12 4 5 12 -7 8 -5 12 5 12 8 0 15 -4 15 -8 0 -3 9 -9 20 -12 11 -3 20 0 20 6
0 7 5 5 10 -3 6 -9 10 -10 10 -3 0 8 9 9 30 3 18 -5 32 -5 36 1 3 5 10 6 16 3
17 -11 52 -10 60 1 5 6 8 4 8 -4 0 -11 4 -10 16 5 8 10 13 14 10 9 -2 -6 4
-11 14 -11 15 0 17 3 7 15 -10 12 -9 13 12 2 15 -8 21 -9 17 -2 -6 10 13 16
37 12 4 0 7 4 7 9 0 7 6 7 19 0 17 -9 19 -7 16 11 -4 18 -2 19 12 7 9 -7 14
-8 11 -3 -4 6 2 17 14 24 16 10 19 10 13 -1 -5 -7 1 -4 12 7 11 11 18 25 15
30 -3 6 3 3 14 -5 10 -8 16 -11 12 -6 -8 10 14 36 25 29 7 -4 11 12 8 30 -1 5
3 6 9 2 5 -3 13 1 16 9 3 9 11 13 17 9 7 -4 8 0 3 13 -4 10 -4 15 0 11 9 -9
35 13 28 24 -3 5 0 9 6 9 6 0 8 5 4 12 -5 7 -2 9 9 5 11 -4 15 -1 12 13 -2 10
4 26 14 37 10 10 17 26 15 35 -1 9 5 19 13 22 13 5 13 9 2 23 -12 15 -12 16 6
9 11 -4 16 -4 12 0 -4 4 -1 14 6 22 10 13 9 15 -7 9 -16 -6 -17 -5 -6 8 18 21
23 68 7 58 -9 -5 -9 -3 0 8 10 12 10 18 1 27 -16 16 4 15 22 0 8 -7 6 -3 -4
10 -11 12 -15 22 -10 22 14 0 11 54 -4 63 -9 6 -9 13 -2 28 6 10 7 19 2 19 -5
0 -7 16 -6 35 2 19 -2 37 -8 41 -6 4 -8 3 -4 -4 3 -6 3 -13 -1 -15 -5 -3 -9 8
-9 24 -2 26 0 28 15 17 14 -12 14 -11 2 4 -7 10 -17 16 -21 13 -5 -3 -11 -1
-15 5 -3 5 -1 10 4 10 6 0 11 5 11 11 0 5 -4 7 -10 4 -5 -3 -10 1 -10 9 0 9
-5 16 -11 16 -5 0 -7 5 -4 10 3 6 -1 10 -9 10 -9 0 -16 5 -16 11 0 5 5 7 10 4
6 -3 10 -4 10 0 0 9 -64 70 -72 68 -4 -2 -5 7 -3 18 3 17 2 19 -10 9 -12 -10
-13 -8 -10 10 3 18 2 20 -10 10 -14 -12 -19 -7 -16 13 1 5 -7 11 -18 14 -11 3
-22 11 -24 17 -3 7 -22 23 -42 35 -20 11 -33 17 -30 11 10 -16 0 -12 -30 14
-16 14 -37 23 -48 20 -26 -5 -68 6 -62 15 2 4 -3 8 -11 8 -9 0 -13 -6 -9 -15
4 -11 2 -12 -7 -5 -7 6 -21 9 -30 8 -10 -2 -21 2 -25 7 -4 7 -1 8 8 3 12 -8
12 -6 0 8 -15 18 -26 23 -16 7 9 -14 -19 -12 -34 3 -10 10 -11 9 -6 -4 4 -10
1 -20 -6 -25 -7 -4 -10 -3 -6 3 4 6 0 14 -8 17 -9 3 -18 -1 -21 -9 -4 -8 -10
-12 -16 -9 -5 3 -4 11 3 20 6 8 9 14 6 14 -2 0 -10 -7 -17 -15z m-1505 -25 c3
-6 -1 -7 -9 -4 -18 7 -21 14 -7 14 6 0 13 -4 16 -10z m1800 -30 c3 -6 -1 -7
-9 -4 -18 7 -21 14 -7 14 6 0 13 -4 16 -10z m-492 -35 c-3 -9 -8 -14 -10 -11
-3 3 -2 9 2 15 9 16 15 13 8 -4z m-1758 -335 c-3 -5 -12 -10 -18 -10 -7 0 -6
4 3 10 19 12 23 12 15 0z"/>
<path d="M3022 791 c-11 -7 -11 -9 0 -14 9 -3 15 1 15 9 0 8 -1 14 -1 14 -1 0
-7 -4 -14 -9z"/>
<path d="M33 645 c0 -8 4 -12 9 -9 5 3 6 10 3 15 -9 13 -12 11 -12 -6z"/>
<path d="M3050 624 c0 -13 18 -39 24 -34 2 3 -2 14 -10 24 -8 11 -14 16 -14
10z"/>
<path d="M1456 567 c3 -10 9 -15 12 -12 3 3 0 11 -7 18 -10 9 -11 8 -5 -6z"/>
<path d="M1670 406 c0 -2 7 -7 16 -10 8 -3 12 -2 9 4 -6 10 -25 14 -25 6z"/>
</g>
</svg>
